<?xml version="1.0" encoding="UTF-8" standalone="no"?>
<svg
   xmlns:dc="http://purl.org/dc/elements/1.1/"
   xmlns:cc="http://creativecommons.org/ns#"
   xmlns:rdf="http://www.w3.org/1999/02/22-rdf-syntax-ns#"
   xmlns:svg="http://www.w3.org/2000/svg"
   xmlns="http://www.w3.org/2000/svg"
   xmlns:sodipodi="http://sodipodi.sourceforge.net/DTD/sodipodi-0.dtd"
   xmlns:inkscape="http://www.inkscape.org/namespaces/inkscape"
   aria-hidden="true"
   data-prefix="fas"
   data-icon="network-wired"
   class="svg-inline--fa fa-network-wired fa-w-20"
   role="img"
   viewBox="0 0 640 640"
   version="1.1"
   id="svg4"
   sodipodi:docname="network-wired-solid.svg"
   inkscape:version="0.92.3 (2405546, 2018-03-11)">
  <metadata
     id="metadata10">
    <rdf:RDF>
      <cc:Work
         rdf:about="">
        <dc:format>image/svg+xml</dc:format>
        <dc:type
           rdf:resource="http://purl.org/dc/dcmitype/StillImage" />
      </cc:Work>
    </rdf:RDF>
  </metadata>
  <defs
     id="defs8" />
  <sodipodi:namedview
     pagecolor="#ffffff"
     bordercolor="#666666"
     borderopacity="1"
     objecttolerance="10"
     gridtolerance="10"
     guidetolerance="10"
     inkscape:pageopacity="0"
     inkscape:pageshadow="2"
     inkscape:window-width="1867"
     inkscape:window-height="1017"
     id="namedview6"
     showgrid="false"
     inkscape:zoom="0.36875"
     inkscape:cx="328.13559"
     inkscape:cy="320"
     inkscape:window-x="53"
     inkscape:window-y="28"
     inkscape:window-maximized="1"
     inkscape:current-layer="svg4" />
  <path
     d="m 640,328 v -16 c 0,-8.84 -7.16,-16 -16,-16 H 344 v -40 h 72 c 17.67,0 32,-14.33 32,-32 V 96 C 448,78.33 433.67,64 416,64 H 224 c -17.67,0 -32,14.33 -32,32 v 128 c 0,17.67 14.33,32 32,32 h 72 v 40 H 16 c -8.84,0 -16,7.16 -16,16 v 16 c 0,8.84 7.16,16 16,16 h 104 v 40 H 64 c -17.67,0 -32,14.33 -32,32 v 128 c 0,17.67 14.33,32 32,32 h 160 c 17.67,0 32,-14.33 32,-32 V 416 c 0,-17.67 -14.33,-32 -32,-32 h -56 v -40 h 304 v 40 h -56 c -17.67,0 -32,14.33 -32,32 v 128 c 0,17.67 14.33,32 32,32 h 160 c 17.67,0 32,-14.33 32,-32 V 416 c 0,-17.67 -14.33,-32 -32,-32 h -56 v -40 h 104 c 8.84,0 16,-7.16 16,-16 z M 256,192 v -64 h 128 v 64 z M 192,512 H 96 v -64 h 96 z m 352,0 h -96 v -64 h 96 z"
     id="path2"
     inkscape:connector-curvature="0"
     style="fill:currentColor" />
</svg>
