<?xml version="1.0" encoding="UTF-8" standalone="no"?>
<svg
   xmlns:dc="http://purl.org/dc/elements/1.1/"
   xmlns:cc="http://creativecommons.org/ns#"
   xmlns:rdf="http://www.w3.org/1999/02/22-rdf-syntax-ns#"
   xmlns:svg="http://www.w3.org/2000/svg"
   xmlns="http://www.w3.org/2000/svg"
   xmlns:sodipodi="http://sodipodi.sourceforge.net/DTD/sodipodi-0.dtd"
   xmlns:inkscape="http://www.inkscape.org/namespaces/inkscape"
   aria-hidden="true"
   focusable="false"
   data-prefix="fab"
   data-icon="usb"
   class="svg-inline--fa fa-usb fa-w-20"
   role="img"
   viewBox="0 0 640 640"
   version="1.1"
   id="svg4"
   sodipodi:docname="usb-brands.svg"
   inkscape:version="0.92.3 (2405546, 2018-03-11)">
  <metadata
     id="metadata10">
    <rdf:RDF>
      <cc:Work
         rdf:about="">
        <dc:format>image/svg+xml</dc:format>
        <dc:type
           rdf:resource="http://purl.org/dc/dcmitype/StillImage" />
      </cc:Work>
    </rdf:RDF>
  </metadata>
  <defs
     id="defs8" />
  <sodipodi:namedview
     pagecolor="#ffffff"
     bordercolor="#666666"
     borderopacity="1"
     objecttolerance="10"
     gridtolerance="10"
     guidetolerance="10"
     inkscape:pageopacity="0"
     inkscape:pageshadow="2"
     inkscape:window-width="1867"
     inkscape:window-height="1017"
     id="namedview6"
     showgrid="false"
     inkscape:zoom="0.36875"
     inkscape:cx="328.13559"
     inkscape:cy="320"
     inkscape:window-x="53"
     inkscape:window-y="28"
     inkscape:window-maximized="1"
     inkscape:current-layer="svg4" />
  <path
     d="m 640.75,319.95 c 0,3.1 -1.7,6.1 -4.5,7.5 l -89.1,53.5 c -1.4,0.8 -2.8,1.4 -4.5,1.4 -1.4,0 -3.1,-0.3 -4.5,-1.1 -2.8,-1.7 -4.5,-4.5 -4.5,-7.8 v -35.6 h -238.7 c 25.3,39.6 40.5,106.9 69.6,106.9 h 26.7 v -26.8 c 0,-5 3.9,-8.9 8.9,-8.9 h 89.1 c 5,0 8.9,3.9 8.9,8.9 v 89.1 c 0,5 -3.9,8.9 -8.9,8.9 h -89.1 c -5,0 -8.9,-3.9 -8.9,-8.9 v -26.7 h -26.7 c -75.4,0 -81.1,-142.5 -124.7,-142.5 h -100.3 c -8.1,30.6 -35.9,53.5 -69,53.5 -39.3,-0.1 -71.3,-32.1 -71.3,-71.4 0,-39.3 32,-71.3 71.3,-71.3 33.1,0 61,22.8 69,53.5 39.1,0 43.9,9.5 74.6,-60.4 40.1,-89.1 58.1,-82.1 108.9,-82.1 7.5,-20.9 27,-35.6 50.4,-35.6 29.5,0 53.5,23.9 53.5,53.5 0,29.6 -23.9,53.5 -53.5,53.5 -23.4,0 -42.9,-14.8 -50.4,-35.6 h -29.8 c -29.1,0 -44.3,67.4 -69.6,106.9 h 310.1 v -35.6 c 0,-3.3 1.7,-6.1 4.5,-7.8 2.8,-1.7 6.4,-1.4 8.9,0.3 l 89.1,53.5 c 2.8,1.1 4.5,4.1 4.5,7.2 z"
     id="path2"
     inkscape:connector-curvature="0"
     style="fill:currentColor" />
</svg>
