<?xml version="1.0" encoding="UTF-8" standalone="no"?>
<svg
   xmlns:dc="http://purl.org/dc/elements/1.1/"
   xmlns:cc="http://creativecommons.org/ns#"
   xmlns:rdf="http://www.w3.org/1999/02/22-rdf-syntax-ns#"
   xmlns:svg="http://www.w3.org/2000/svg"
   xmlns="http://www.w3.org/2000/svg"
   xmlns:sodipodi="http://sodipodi.sourceforge.net/DTD/sodipodi-0.dtd"
   xmlns:inkscape="http://www.inkscape.org/namespaces/inkscape"
   aria-hidden="true"
   data-prefix="fas"
   data-icon="wifi"
   class="svg-inline--fa fa-wifi fa-w-20"
   role="img"
   viewBox="0 0 640 640"
   version="1.1"
   id="svg4"
   sodipodi:docname="wifi-solid.svg"
   inkscape:version="0.92.3 (2405546, 2018-03-11)">
  <metadata
     id="metadata10">
    <rdf:RDF>
      <cc:Work
         rdf:about="">
        <dc:format>image/svg+xml</dc:format>
        <dc:type
           rdf:resource="http://purl.org/dc/dcmitype/StillImage" />
      </cc:Work>
    </rdf:RDF>
  </metadata>
  <defs
     id="defs8" />
  <sodipodi:namedview
     pagecolor="#ffffff"
     bordercolor="#666666"
     borderopacity="1"
     objecttolerance="10"
     gridtolerance="10"
     guidetolerance="10"
     inkscape:pageopacity="0"
     inkscape:pageshadow="2"
     inkscape:window-width="1867"
     inkscape:window-height="1017"
     id="namedview6"
     showgrid="false"
     inkscape:zoom="0.36875"
     inkscape:cx="328.13559"
     inkscape:cy="320"
     inkscape:window-x="53"
     inkscape:window-y="28"
     inkscape:window-maximized="1"
     inkscape:current-layer="svg4" />
  <path
     d="m 634.90934,218.88 c -177.17,-163.869999 -452.72,-163.809999 -629.8200004,0 -6.66,6.16 -6.79,16.59 -0.35,22.98 L 38.97934,275.83 c 6.14,6.1 16.02,6.23 22.4,0.38 145.92,-133.68 371.3,-133.71 517.25,0 6.38,5.85 16.26,5.71 22.4,-0.38 l 34.24,-33.97 c 6.43,-6.39 6.3,-16.82 -0.36,-22.98 z M 319.99934,416 c -35.35,0 -64,28.65 -64,64 0,35.35 28.65,64 64,64 35.35,0 64,-28.65 64,-64 0,-35.35 -28.65,-64 -64,-64 z m 202.67,-83.59 c -115.26,-101.93 -290.21,-101.82 -405.34,0 -6.9,6.1 -7.12,16.69 -0.57,23.15 l 34.44,33.99 c 6,5.92 15.66,6.32 22.05,0.8 83.95,-72.57 209.74,-72.41 293.49,0 6.39,5.52 16.05,5.13 22.05,-0.8 l 34.44,-33.99 c 6.56,-6.46 6.33,-17.06 -0.56,-23.15 z"
     id="path2"
     inkscape:connector-curvature="0"
     style="fill:currentColor" />
</svg>
