<svg xmlns="http://www.w3.org/2000/svg" fill="#08c" viewBox="0 0 153.97 61.9"><g stroke-width=".26"><g stroke="#08c" aria-label="NSWA" paint-order="fill markers stroke"><path d="M106.16 13.3h1.55V6.53c0-1.36-.12-2.74-.2-4.04h.08l1.39 2.66 4.71 8.17h1.68V.38h-1.56V7.1c0 1.34.13 2.79.22 4.1h-.1l-1.37-2.67-4.7-8.15h-1.7zM122.5 13.54c2.7 0 4.4-1.62 4.4-3.67 0-1.92-1.16-2.8-2.66-3.46l-1.86-.8c-1-.42-2.13-.9-2.13-2.14 0-1.17.95-1.9 2.42-1.9 1.2 0 2.15.47 2.94 1.2l.87-1.03a5.3 5.3 0 0 0-3.81-1.6c-2.35 0-4.08 1.44-4.08 3.43 0 1.89 1.43 2.8 2.63 3.32l1.87.81c1.22.55 2.15.97 2.15 2.3 0 1.26-1.02 2.1-2.71 2.1a5.08 5.08 0 0 1-3.59-1.6l-.97 1.12a6.18 6.18 0 0 0 4.54 1.92zM130.88 13.3h1.94l1.92-7.79c.21-1.02.44-1.96.65-2.94h.07l.64 2.94 1.96 7.8H140L142.7.38h-1.57l-1.36 7.04-.74 4.18h-.1l-.9-4.18L136.2.38h-1.48l-1.78 7.04c-.32 1.4-.63 2.78-.93 4.18h-.07c-.25-1.4-.52-2.79-.76-4.18L129.82.38h-1.7zM146.56 8.05l.63-1.97c.46-1.47.88-2.86 1.3-4.38h.06c.42 1.5.83 2.91 1.3 4.38l.62 1.97zm5.55 5.26h1.73L149.45.38h-1.82l-4.39 12.93h1.66l1.25-3.95h4.73z" paint-order="fill markers stroke"/></g><g aria-label="Ranga"><path d="M16.89 13.14h6.24c5.85 0 9.05 1.73 9.05 6.66 0 4.82-3.2 7.16-9.05 7.16H16.9zm21.08 33.43l-9.55-16.3c5.08-1.23 8.43-4.68 8.43-10.47 0-7.77-5.44-10.47-13-10.47H12.15v37.24h4.72v-15.8h6.71l9.04 15.8zM50.15 47.23c3.4 0 6.5-1.78 9.14-3.96h.16l.4 3.3h3.81V29.6c0-6.8-2.84-11.32-9.55-11.32-4.42 0-8.33 1.98-10.87 3.6l1.83 3.2c2.19-1.47 5.08-2.94 8.28-2.94 4.52 0 5.7 3.4 5.7 6.96-11.74 1.32-16.98 4.31-16.98 10.3 0 4.99 3.46 7.83 8.08 7.83zm1.32-3.7c-2.74 0-4.88-1.28-4.88-4.43 0-3.55 3.15-5.84 12.45-6.96v7.72c-2.7 2.4-4.88 3.66-7.57 3.66zM72.48 46.57h4.62V26.56c2.8-2.8 4.72-4.22 7.57-4.22 3.66 0 5.23 2.18 5.23 7.37v16.86h4.62V29.1c0-7.06-2.64-10.82-8.43-10.82-3.76 0-6.6 2.08-9.25 4.67h-.15l-.4-3.96h-3.81zM112.83 59.27c8.53 0 13.92-4.42 13.92-9.55 0-4.52-3.2-6.55-9.6-6.55h-5.39c-3.7 0-4.83-1.22-4.83-3 0-1.52.77-2.44 1.78-3.3a9.6 9.6 0 0 0 4.12.96c5.59 0 10.06-3.7 10.06-9.6 0-2.39-.92-4.42-2.24-5.69h5.64V19h-9.6c-.97-.36-2.34-.71-3.86-.71-5.6 0-10.37 3.8-10.37 9.85 0 3.3 1.78 5.94 3.61 7.42v.2c-1.42 1.02-3.1 2.85-3.1 5.13a4.99 4.99 0 0 0 2.54 4.52v.2c-2.59 1.68-4.11 3.92-4.11 6.25 0 4.78 4.67 7.42 11.43 7.42zm0-24.59c-3.2 0-5.9-2.54-5.9-6.55 0-4.06 2.65-6.45 5.9-6.45s5.84 2.44 5.84 6.45-2.7 6.55-5.84 6.55zm.66 21.44c-5.03 0-8.03-1.93-8.03-4.87 0-1.63.87-3.26 2.85-4.68 1.22.3 2.54.46 3.55.46h4.78c3.66 0 5.64.86 5.64 3.4 0 2.9-3.5 5.7-8.8 5.7zM137.57 47.23c3.4 0 6.5-1.78 9.14-3.96h.15l.41 3.3h3.81V29.6c0-6.8-2.84-11.32-9.55-11.32-4.42 0-8.33 1.98-10.87 3.6l1.83 3.2c2.18-1.47 5.08-2.94 8.28-2.94 4.52 0 5.69 3.4 5.69 6.96-11.74 1.32-16.97 4.31-16.97 10.3 0 4.99 3.46 7.83 8.08 7.83zm1.32-3.7c-2.74 0-4.88-1.28-4.88-4.43 0-3.55 3.15-5.84 12.45-6.96v7.72c-2.7 2.4-4.88 3.66-7.57 3.66z"/></g><g aria-label="The 4th GEN system"><path d="M2.35 59.42h.98V52.5h2.35v-.83H0v.83h2.35zM7 59.42h.96v-4.17c.58-.58.98-.88 1.57-.88.76 0 1.1.46 1.1 1.54v3.51h.96v-3.64c0-1.47-.56-2.25-1.76-2.25-.78 0-1.38.43-1.9.96l.03-1.19V51h-.97zM15.74 59.56c.78 0 1.4-.27 1.9-.6l-.35-.63c-.42.29-.87.46-1.44.46-1.09 0-1.84-.79-1.9-2.01h3.87c.02-.14.05-.34.05-.55 0-1.65-.83-2.7-2.3-2.7-1.32 0-2.58 1.16-2.58 3.02 0 1.9 1.22 3 2.75 3zm-1.8-3.47c.12-1.13.83-1.8 1.65-1.8.9 0 1.43.63 1.43 1.8zM21.91 56.51l1.77-2.64c.22-.39.43-.77.62-1.15h.05c-.03.4-.07 1.03-.07 1.41v2.38zm4.32 0H25.2v-4.85h-1.07l-3.22 4.99v.63h3.37v2.14h.92v-2.14h1.03zM29.35 59.56c.35 0 .73-.1 1.06-.21l-.2-.72c-.18.07-.45.15-.65.15-.67 0-.89-.4-.89-1.12v-3.2h1.56v-.79h-1.56v-1.6h-.8l-.12 1.6-.9.06v.73h.86v3.18c0 1.16.41 1.92 1.64 1.92zM31.53 59.42h.96v-4.17c.58-.58.99-.88 1.58-.88.76 0 1.09.46 1.09 1.54v3.51h.96v-3.64c0-1.47-.55-2.25-1.76-2.25-.78 0-1.37.43-1.9.96l.03-1.19V51h-.96zM43.47 59.56c1.04 0 1.9-.38 2.4-.9V55.4h-2.54v.81h1.64v2.04c-.3.28-.85.45-1.4.45-1.67 0-2.6-1.23-2.6-3.18 0-1.94 1.02-3.15 2.58-3.15.8 0 1.3.33 1.68.74l.53-.63a2.95 2.95 0 0 0-2.23-.96c-2.05 0-3.56 1.52-3.56 4.03 0 2.52 1.45 4 3.5 4zM47.71 59.42h4.6v-.83H48.7v-2.83h2.94v-.84H48.7V52.5h3.5v-.83H47.7zM53.94 59.42h.93v-4.07c0-.82-.08-1.64-.12-2.43h.04l.84 1.6 2.83 4.9h1v-7.76h-.93v4.04c0 .8.07 1.67.13 2.45h-.06l-.82-1.6-2.83-4.89h-1.01zM65.38 59.56c1.35 0 2.1-.77 2.1-1.7 0-1.1-.93-1.43-1.76-1.75-.65-.24-1.27-.45-1.27-1 0-.44.33-.82 1.05-.82.52 0 .92.21 1.32.5l.47-.62a2.98 2.98 0 0 0-1.8-.64c-1.24 0-1.97.72-1.97 1.63 0 .97.9 1.36 1.71 1.66.64.24 1.31.5 1.31 1.09 0 .5-.37.9-1.13.9a2.6 2.6 0 0 1-1.7-.68l-.48.64c.55.45 1.34.79 2.15.79zM68.93 61.9c1.15 0 1.74-.87 2.14-2l2.17-6.23h-.94l-1.03 3.2c-.16.5-.33 1.1-.48 1.61h-.06l-.55-1.6-1.17-3.2h-1l2.3 5.75-.13.44c-.23.7-.64 1.23-1.3 1.23-.15 0-.32-.05-.43-.1l-.2.78c.19.08.4.12.68.12zM75.86 59.56c1.35 0 2.1-.77 2.1-1.7 0-1.1-.93-1.43-1.76-1.75-.65-.24-1.27-.45-1.27-1 0-.44.33-.82 1.05-.82.52 0 .92.21 1.32.5l.47-.62a2.98 2.98 0 0 0-1.8-.64c-1.24 0-1.97.72-1.97 1.63 0 .97.9 1.36 1.71 1.66.64.24 1.31.5 1.31 1.09 0 .5-.37.9-1.13.9a2.6 2.6 0 0 1-1.7-.68l-.48.64c.55.45 1.34.79 2.15.79zM80.9 59.56c.35 0 .73-.1 1.06-.21l-.2-.72c-.18.07-.45.15-.65.15-.67 0-.89-.4-.89-1.12v-3.2h1.56v-.79h-1.56v-1.6h-.8l-.12 1.6-.9.06v.73h.86v3.18c0 1.16.41 1.92 1.64 1.92zM85.23 59.56c.78 0 1.4-.27 1.9-.6l-.35-.63c-.42.29-.87.46-1.44.46-1.09 0-1.84-.79-1.9-2.01h3.87c.02-.14.05-.34.05-.55 0-1.65-.83-2.7-2.3-2.7-1.32 0-2.58 1.16-2.58 3.02 0 1.9 1.22 3 2.75 3zm-1.8-3.47c.12-1.13.83-1.8 1.65-1.8.9 0 1.43.63 1.43 1.8zM88.79 59.42h.96v-4.17c.53-.59 1.02-.88 1.45-.88.73 0 1.07.46 1.07 1.54v3.51h.96v-4.17c.54-.59 1-.88 1.45-.88.73 0 1.07.46 1.07 1.54v3.51h.96v-3.64c0-1.47-.56-2.25-1.74-2.25-.7 0-1.3.45-1.9 1.1-.23-.68-.7-1.1-1.58-1.1-.7 0-1.3.43-1.8.98h-.02l-.09-.83h-.8z"/></g></g></svg>